<svg xmlns="http://www.w3.org/2000/svg" viewBox="0 0 1000 430" width="1000" height="430"><rect width="100%" height="100%" fill="white"/><text x="500.0" y="30" text-anchor="middle" font-size="20" font-weight="700" font-family="Arial, Helvetica, sans-serif" fill="#222">High-Cost Classification Performance</text><rect x="120.0" y="100.0" width="105.0" height="105.0" fill="rgb(200,200,200)" stroke="#555"/><text x="172.5" y="157.75" text-anchor="middle" font-size="26" font-weight="700" font-family="Arial, Helvetica, sans-serif" fill="#222">422</text><rect x="225.0" y="100.0" width="105.0" height="105.0" fill="rgb(230,230,230)" stroke="#555"/><text x="277.5" y="157.75" text-anchor="middle" font-size="26" font-weight="700" font-family="Arial, Helvetica, sans-serif" fill="#222">3</text><rect x="120.0" y="205.0" width="105.0" height="105.0" fill="rgb(230,230,230)" stroke="#555"/><text x="172.5" y="262.75" text-anchor="middle" font-size="26" font-weight="700" font-family="Arial, Helvetica, sans-serif" fill="#222">5</text><rect x="225.0" y="205.0" width="105.0" height="105.0" fill="rgb(230,230,230)" stroke="#555"/><text x="277.5" y="262.75" text-anchor="middle" font-size="26" font-weight="700" font-family="Arial, Helvetica, sans-serif" fill="#222">38</text><text x="108" y="157.75" text-anchor="end" font-size="12" font-family="Arial, Helvetica, sans-serif" fill="#222">Not high-cost</text><text x="172.5" y="332" text-anchor="middle" font-size="12" font-family="Arial, Helvetica, sans-serif" fill="#222">Not high-cost</text><text x="108" y="262.75" text-anchor="end" font-size="12" font-family="Arial, Helvetica, sans-serif" fill="#222">High-cost</text><text x="277.5" y="332" text-anchor="middle" font-size="12" font-family="Arial, Helvetica, sans-serif" fill="#222">High-cost</text><text x="225.0" y="70" text-anchor="middle" font-size="15" font-weight="600" font-family="Arial, Helvetica, sans-serif" fill="#222">Confusion matrix</text><line x1="580" y1="340" x2="910" y2="340" stroke="#333"/><line x1="580" y1="80" x2="580" y2="340" stroke="#333"/><text x="745.0" y="374" text-anchor="middle" font-size="13" font-family="Arial, Helvetica, sans-serif" fill="#222">Recall</text><text x="538" y="210.0" text-anchor="middle" font-size="13" transform="rotate(-90 538 210.0)" font-family="Arial, Helvetica, sans-serif" fill="#222">Precision</text><polyline points="910,316 910,314 910,312 910,309 910,306 910,303 910,300 910,296 910,292 910,288 910,283 910,278 910,272 910,266 910,260 910,253 910,245 910,237 902,233 902,220 902,205 902,186 902,164 902,138 902,108 895,103 887,104 879,104 872,105 872,99 864,100 864,93 864,87 856,87 849,87 841,87 841,80 833,80 826,80 818,80 810,80 803,80 795,80 787,80 780,80 772,80 764,80 757,80 749,80 741,80 734,80 726,80 718,80 710,80 703,80 695,80 687,80 680,80 672,80 664,80 657,80 649,80 641,80 634,80 626,80 618,80 611,80 603,80 595,80 588,80 580,80" fill="none" stroke="#333" stroke-width="2.2"/><text x="590" y="102" font-size="14" font-weight="600" font-family="Arial, Helvetica, sans-serif" fill="#222">PR-AUC = 0.974</text><text x="745.0" y="55" text-anchor="middle" font-size="15" font-weight="600" font-family="Arial, Helvetica, sans-serif" fill="#222">Precision–recall curve</text></svg>